<svg preserveAspectRatio="none" width="100%" height="100%" overflow="visible" style="display: block;" viewBox="0 0 197.011 435.055" fill="none" xmlns="http://www.w3.org/2000/svg">
<g id="Standing Mirror">
<path id="Vector" d="M45.6638 0.304695C71.7506 -0.224198 99.4596 0.183902 125.623 0.201965L154.046 0.209019C162.857 0.213817 176.866 -2.16168 179.166 8.98485C179.973 12.8991 178.454 20.4401 178.171 24.623C175.314 66.904 170.994 109.1 168.257 151.388C168.019 155.055 169.488 163.38 169.941 167.397L174.415 204.176L188.606 329.215L194.601 383.095L196.218 398.197C196.664 402.111 198.795 407.886 193.438 409.305C188.947 410.499 187.705 405.162 187.42 401.936C186.969 396.819 186.418 391.722 185.885 386.625C175.415 385.268 164.896 383.374 154.372 382.257C152.6 382.067 151.042 381.881 149.285 381.548C149.026 385.279 149.049 389.428 148.617 393.06C148.048 398.524 146.54 426.394 144.755 429.716C143.468 432.112 141.039 433.958 138.435 434.686C137.204 435.03 135.976 435.123 134.704 435.008C132.277 434.79 129.843 434.254 127.427 433.91C123.781 433.393 120.071 432.998 116.412 432.555L69.0971 426.589L21.1463 420.538C17.7917 420.083 14.4099 419.9 11.0607 419.384C8.92537 419.053 6.47001 418.844 4.57493 417.747C2.40775 416.488 0.864924 414.73 0.262303 412.263C-0.903141 407.488 2.15795 382.406 2.74872 376.056L8.81811 309.857C14.5722 242.684 20.682 175.545 27.1465 108.438L33.1773 41.9517C34.0551 32.3744 34.776 22.7143 35.6736 13.1296C36.3589 5.80981 38.0567 2.10925 45.6638 0.304695ZM139.795 431.996C141.888 430.009 143.209 428.993 143.685 425.996C144.383 421.602 144.261 417.306 144.631 412.932L147.635 375.17L158.371 241.282L170.595 89.8707C172.811 63.7797 175.259 37.6904 176.939 11.5551C177.402 4.34477 172.2 2.73269 166.281 2.72704L86.4137 2.79309L61.1081 2.7739C56.2716 2.75527 49.9298 2.56335 45.1755 2.85432C40.3604 4.17656 38.5563 6.23794 38.0883 11.3589C36.8667 24.73 35.7359 38.112 34.5211 51.4837L25.6156 150.112L10.1625 319.173L5.59642 369.288C4.99069 375.751 1.25162 408.052 2.37501 411.766C2.94207 413.64 4.06348 414.986 5.79739 415.898C9.22993 417.699 24.8628 418.828 29.3789 419.417L104.636 429.038L128.472 431.954C130.507 432.219 133.14 432.276 134.978 432.609C136.917 432.753 137.926 432.403 139.795 431.996ZM150.312 371.837C156.463 373.124 162.469 373.629 168.653 374.662C169.596 374.82 170.573 374.876 171.527 374.905C176.071 375.585 180.108 375.954 184.488 376.539C183.638 367.132 182.362 357.883 181.363 348.525L170.682 252.825L166.355 213.832C166.02 210.959 165.355 201.772 164.483 199.409C163.288 205.978 163.266 212.351 162.693 218.873L159.145 262.2L153.223 336.942C152.332 348.299 150.949 360.528 150.312 371.837ZM193.049 407.236C194.152 406.649 194.259 406.819 194.807 405.831C194.725 400.172 193.802 396.122 193.286 390.771C191.956 376.982 190.212 363.195 188.676 349.431C182.924 296.177 176.819 242.966 170.364 189.795C170.135 187.907 167.7 165.213 167.297 164.409C166.102 173.546 164.912 182.856 166.054 192.077C166.426 195.081 166.828 198.097 167.175 201.102L170.102 227.258L182.777 341.89C185.063 363.294 187.725 384.935 190.299 406.266C190.373 406.884 192.535 407.157 193.049 407.236ZM149.717 379.423C159.734 380.795 169.772 382.079 179.765 383.552C181.713 383.84 183.359 383.812 185.408 384.167C185.447 382.655 185.08 380.634 184.857 379.093C175.069 377.16 164.7 376.443 154.813 374.84C153.344 374.603 151.555 374.639 150.092 374.436C149.981 376.067 149.894 377.803 149.717 379.423Z" fill="var(--fill-0, #79AFB6)"/>
<path id="Vector_2" d="M73.6644 9.70958L134.682 9.79058C144.558 9.80187 158.159 9.38643 168.272 10.2009C170.676 10.3945 170.385 16.5705 170.245 18.6982C167.551 55.0055 164.551 91.2894 161.246 127.546L150.714 259.079L141.657 373.036L138.724 409.588C138.28 414.546 138.854 419.982 136.686 424.512C135.194 425.446 134.87 425.593 133.197 426.143C127.841 425.082 122.406 424.746 117.013 423.984C114.794 423.671 112.651 423.36 110.418 423.16C107.665 423.106 103.18 422.172 100.193 421.831C89.2233 420.552 78.2686 419.15 67.3316 417.617L30.9999 412.977C25.8487 412.342 13.2752 411.493 9.14271 409.452C8.05037 403.506 9.40606 393.554 10.018 387.334L11.7556 367.719L18.1371 298.503L31.7835 147.298C33.6752 126.615 35.2589 105.885 37.4018 85.223C38.2102 77.4284 43.3513 12.5121 44.7761 11.1718C45.6381 10.3612 47.1355 10.0268 48.2806 9.87215C51.1224 9.48775 54.2684 9.73921 57.1398 9.74853C62.6481 9.79679 68.1564 9.7838 73.6644 9.70958ZM131.595 423.564C132.465 423.662 134.287 423.789 134.726 423.239C135.852 421.828 136.458 412.754 136.612 410.815C137.365 401.321 137.858 391.658 138.633 382.254L144.631 307.972L159.65 119.374L166.418 38.0358L167.688 21.6559C167.876 19.1693 168.492 14.9373 168.02 12.5352C166.202 11.0262 149.667 11.5782 146.15 11.5714L101.755 11.6149C89.886 11.5229 78.0162 11.5014 66.1467 11.5511C61.3452 11.5472 52.0637 11.2658 47.5812 11.6589C45.9351 13.0218 45.8969 14.8684 45.6957 16.9955L24.0919 257.225C20.133 297.134 16.5015 337.075 13.1976 377.044C12.4553 386.459 11.3644 396.063 10.506 405.484C10.4202 406.427 10.5173 407.121 11.1233 407.877C15.557 409.701 22.0052 409.557 26.7065 410.367C30.3564 410.996 34.1336 411.292 37.8038 411.75L102.314 420.067C110.002 421.026 117.783 421.853 125.445 422.988C127.229 423.253 130.154 423.256 131.595 423.564Z" fill="var(--fill-0, #79AFB6)"/>
<path id="Vector_3" d="M121.906 47.6181C122.644 47.6265 122.293 47.5424 122.973 47.9533L123.007 48.5116C122.334 49.9842 82.4158 88.0741 78.4673 91.3217C77.8373 90.9105 77.6425 90.8583 77.3684 90.1533C77.9208 89.0001 119.456 49.2366 121.906 47.6181Z" fill="var(--fill-0, #79AFB6)"/>
<path id="Vector_4" d="M110.174 274.458C110.962 274.974 110.823 274.712 111.005 275.442C110.386 276.93 72.7789 311.943 68.7714 315.09L68.1363 314.878C67.6319 314.071 67.8877 313.252 68.5877 312.615C74.9134 306.86 81.0285 300.84 87.453 295.181C94.9334 288.597 102.268 280.427 110.174 274.458Z" fill="var(--fill-0, #79AFB6)"/>
<path id="Vector_5" d="M102.244 303.222C102.764 303.462 102.63 303.42 103.066 303.837L103.035 304.577C101.9 306.6 65.6446 339.658 62.0664 342.7C61.5659 342.347 61.4968 342.212 61.09 341.763L61.1265 341.193C67.7062 334.524 76.6069 326.599 83.5781 320.08C87.3262 316.58 91.1113 313.123 94.9328 309.705C97.159 307.676 99.8808 304.955 102.244 303.222Z" fill="var(--fill-0, #79AFB6)"/>
<path id="Vector_6" d="M111.892 79.1328C112.358 79.2942 112.486 79.4831 112.847 79.8251C112.687 81.1454 106.598 86.5201 105.16 87.9041C99.7461 93.1597 94.2667 98.3468 88.7223 103.464C84.8963 107.043 78.5361 113.595 74.5876 116.712C73.6658 116.297 73.8862 116.539 73.3361 115.793C73.5681 114.951 108.611 81.4598 111.892 79.1328Z" fill="var(--fill-0, #79AFB6)"/>
<rect id="white part" x="6.99683" y="353.671" width="6.0281" height="5" transform="rotate(4.90712 6.99683 353.671)" fill="var(--fill-0, white)"/>
<path id="white part_2" d="M15.1288 354.204L14.7609 358.204H140.578L140.891 354.204H15.1288Z" fill="var(--fill-0, white)"/>
<rect id="white part_3" x="143.196" y="353.579" width="6.15047" height="5.04307" transform="rotate(4.39591 143.196 353.579)" fill="var(--fill-0, white)"/>
<path id="shadow" d="M167.448 163.704L164.948 185.204L189.948 406.704L192.948 407.204L195.948 406.204L167.448 163.704Z" fill="var(--fill-0, #79AFB6)"/>
<path id="shadow_2" d="M149.948 374.204L149.448 379.704L185.948 384.704L185.448 378.654L149.948 374.204Z" fill="var(--fill-0, #79AFB6)"/>
</g>
</svg>
