<svg overflow="visible" style="display: block;" viewBox="0 0 126.136 159.492" fill="none" xmlns="http://www.w3.org/2000/svg">
<path id="Vector" d="M62.4861 0.0171102C63.2666 -0.0969601 65.1632 0.382814 65.8019 0.759415C68.0307 2.07328 67.4732 4.7962 68.014 6.825C69.4373 8.29387 79.5707 14.8877 82.2062 16.6864L100.319 29.0365C101.817 30.0455 107.046 33.6475 108.359 34.236C108.984 33.3862 109.495 32.7015 110.476 32.323C112.958 32.6192 112.412 36.0943 112.35 37.9272C114.412 37.7133 124.773 37.5678 125.9 38.7456C126.271 42.9371 126.053 50.3517 126.052 54.775L126.047 84.4449L126.057 131.404C126.058 135.097 126.457 156.812 125.452 158.997C123.426 159.837 69.5393 159.354 63.4902 159.353L22.2142 159.358C15.8335 159.358 6.21671 159.666 0.15718 159.206C-0.116007 154.126 0.0496504 147.68 0.0508613 142.515L0.0542501 113.041C0.0540079 90.7938 0.0544922 68.5465 0.0443203 46.2989C0.0438359 44.977 -0.124241 39.1636 0.455314 38.4055C2.54006 37.6286 9.35352 37.8754 11.8192 38.0076C11.8074 36.5174 11.4174 33.3315 13.068 32.6025C15.5034 31.5267 15.2648 34.7453 16.3753 35.2246C21.1326 32.4196 27.434 27.7386 32.1366 24.5316L58.2815 6.92067C58.0422 2.78967 58.4534 1.34648 62.4861 0.0171102ZM110.434 48.6205C109.331 48.2078 108.015 47.8487 107.537 46.7346C106.774 44.9557 107.984 43.0577 108.47 41.3929C108.6 40.9463 108.669 39.5382 108.705 38.9783C106.025 39.244 95.4139 39.2486 92.589 39.0541C92.5851 39.6215 92.5735 41.1376 92.6956 41.6484C93.1126 43.3926 94.3395 45.7874 92.8632 47.3994C92.3304 47.9811 91.3454 48.302 90.5951 48.5682C85.9998 46.8831 87.1907 45.3851 88.6283 41.5145C88.7784 41.111 88.8126 39.5416 88.8329 38.9974C86.1592 39.2115 75.7638 39.2914 73.1813 39.0209C73.1653 41.5508 73.7204 43.0163 73.9534 45.429C74.0929 46.8719 73.2375 48.5515 71.5604 48.4413C65.6425 48.0521 68.8755 42.9211 69.2257 39.1369C65.0307 39.1284 57.1594 39.3375 53.3793 39.0156C53.3835 39.6094 53.3861 41.1401 53.5411 41.6431C54.0853 43.3919 55.6317 45.6506 54.0531 47.3008C53.4193 47.9632 52.3607 48.3824 51.4702 48.3415C47.3523 48.1524 48.6206 44.7193 49.3208 42.1088C49.5688 41.1839 49.5966 39.9601 49.6262 39.0522C46.3571 39.2248 37.6049 39.2769 34.4693 38.9764C34.4669 39.516 34.4638 40.9202 34.5824 41.3919C35.0634 43.3033 36.4301 45.7222 34.7236 47.4486C34.2502 47.9276 33.2422 48.3466 32.6067 48.6203C31.5093 48.1604 30.0778 47.6769 29.5735 46.5474C28.8695 44.9695 30.0484 43.1182 30.5072 41.6353C30.6643 41.127 30.7118 39.7053 30.7326 39.1277C26.365 39.144 20.0742 39.2774 15.8102 39.0294C15.7429 39.7112 15.5768 41.1628 15.7725 41.7744C16.3956 43.7123 18.0604 45.8477 15.9967 47.5573C14.9132 48.4553 12.3632 48.9508 11.4632 47.644C10.2702 45.9119 11.3133 43.3384 11.7168 41.5222C11.8711 40.8276 11.8979 39.8291 11.9449 39.1146C8.28959 39.15 4.63402 39.1493 0.97868 39.1122C1.24557 48.8954 1.05666 59.5616 1.05691 69.415L1.05279 124.839L1.05812 147.06C1.06296 150.056 0.915226 155.544 1.16274 158.405L83.7015 158.39L110.822 158.395C115.167 158.396 120.756 158.246 124.998 158.43C125.308 147.115 125.199 133.915 125.103 122.507L125.104 66.8642L125.095 49.6101C125.094 46.4004 124.967 42.1892 125.267 39.1134C121.561 39.1236 115.895 39.3181 112.345 39.08C112.321 39.8775 112.274 41.0073 112.459 41.748C112.94 43.6801 114.452 45.9056 112.575 47.6002C111.995 48.124 111.174 48.3689 110.434 48.6205ZM30.5767 37.9408C30.589 36.2634 30.3647 32.2535 32.9484 32.362C34.8217 33.626 34.5403 36.0677 34.5292 38.0488C36.1651 37.785 47.7444 37.8407 49.561 38.0246C49.5203 36.2491 49.1781 32.3472 51.9267 32.4344C53.9456 33.5778 53.4709 35.9936 53.3815 37.9589C57.3192 37.599 62.8341 38.01 67.0065 37.8962C68.093 37.9604 68.0719 38.1428 68.8052 37.654C69.9563 35.4109 67.6728 31.4838 72.338 32.8403C73.2242 33.6872 73.1394 34.6753 73.1627 35.9437C73.1711 36.6383 73.1663 37.3331 73.1481 38.0275C76.368 37.8182 85.546 37.6857 88.7181 37.9352C88.6852 36.0178 88.3357 33.3365 90.3948 32.3094C92.9785 32.6434 92.6655 36.1321 92.6454 38.0272C97.1041 37.4145 103.89 38.2631 108.299 37.7284C109.435 35.6472 105.686 33.9863 104.194 32.9839L93.8588 26.0075L76.368 14.0746C75.4276 13.436 67.7447 7.86277 66.8873 8.38929C64.7849 9.68039 63.496 10.065 60.7261 9.10979C59.9501 8.84121 59.356 8.16357 58.8646 7.93979C52.6835 11.6482 44.7766 17.3967 38.5889 21.5432C33.4638 24.969 28.3648 28.4339 23.2929 31.9379C22.0003 32.8262 16.0931 36.4939 15.8243 37.5504C16.5947 38.1142 28.4495 37.6799 30.5767 37.9408ZM49.7514 46.6903C51.5285 47.4791 54.4864 47.2354 53.7659 44.8489L53.3476 44.4852C51.1268 46.8244 50.4062 44.4215 49.328 45.3243C49.3711 45.9986 49.4305 46.0904 49.7514 46.6903ZM73.1913 46.4449C73.2441 45.8167 73.331 45.5253 73.0547 44.9623L68.4112 44.746C68.6616 47.1303 71.2034 47.86 73.1913 46.4449ZM11.8318 46.3449C13.1077 47.3982 14.1738 47.5692 15.6058 46.6384C16.1442 45.8174 16.0076 46.1965 16.0609 45.1531L15.718 44.4888C13.3075 46.8472 12.7098 44.3878 11.4388 45.2246C11.5671 45.753 11.5829 45.868 11.8318 46.3449ZM110.089 33.2154C109.497 34.6095 109.337 42.7484 109.643 43.8557C110.195 44.4057 110.297 44.4636 110.997 44.809C111.473 43.661 111.332 35.4225 110.962 33.8732C110.873 33.4978 110.489 33.4172 110.089 33.2154ZM92.5524 46.7276L92.6016 45.5985L92.2594 45.2713C89.7111 45.3987 90.1095 45.0378 88.132 44.7952C88.2117 47.2214 90.7058 47.6665 92.5524 46.7276ZM34.3884 46.7126C34.502 45.7671 34.6546 45.8126 34.2746 45.1291C31.8443 45.5333 32.6503 45.6624 30.707 44.7101C30.1543 45.4876 30.2311 45.1446 30.3473 45.9894C31.2732 47.2483 33.0644 47.5193 34.3884 46.7126ZM108.644 46.5878C110.271 47.326 111.379 47.5181 112.608 45.9734C112.72 45.1582 112.791 45.4299 112.474 44.815C110.56 45.8116 108.78 45.0495 108.269 45.6045C108.377 46.0276 108.396 46.2173 108.644 46.5878ZM62.6098 1.18833C61.2364 1.34091 60.055 2.22901 59.5265 3.50582C58.9983 4.78263 59.2069 6.24593 60.0707 7.32439C60.9349 8.40285 62.3175 8.92549 63.6788 8.68815C65.6958 8.33673 67.069 6.44694 66.7801 4.42008C66.4911 2.39321 64.6447 0.962125 62.6098 1.18833ZM13.1198 33.2423C12.8333 34.7318 12.5252 42.9882 13.1743 44.1592C13.5906 44.4181 13.7328 44.543 14.2031 44.6523C15.0648 43.3304 14.7168 36.5598 14.5414 34.6148C14.469 33.8134 13.8706 33.3981 13.1198 33.2423ZM70.6652 33.2755C70.0886 34.315 70.206 42.112 70.1876 43.7775C70.5826 44.4091 70.7936 44.3827 71.5676 44.528C71.702 44.3665 71.8708 44.1638 72.074 43.9199C72.1353 40.97 72.106 37.9396 71.967 34.9938C71.9442 34.5138 71.805 34.1384 71.6287 33.7933C71.3029 33.5913 71.0295 33.3944 70.6652 33.2755ZM50.9381 33.2268C50.4678 34.9151 50.485 41.8409 50.5983 43.8523C51.1248 44.5154 51.1178 44.3587 52.0219 44.7099C52.6927 43.4253 52.841 34.607 51.6789 33.4901L50.9381 33.2268ZM90.1197 33.228C89.6384 34.6783 89.6707 41.7041 89.6288 43.6603C90.1109 44.4849 90.635 44.4103 91.5505 44.5164C92.0673 43.2771 91.69 35.6807 91.4236 34.1321C91.3376 33.632 90.6026 33.353 90.1197 33.228ZM31.9864 33.2053C31.4524 34.7732 31.51 41.7363 31.4742 43.7794C31.9373 44.5021 32.58 44.4251 33.4081 44.4982C33.9457 43.0897 33.6658 35.7846 33.2378 34.0369C33.1296 33.5954 32.4299 33.3082 31.9864 33.2053Z" fill="var(--fill-0, #79AFB6)"/>
</svg>
