<svg preserveAspectRatio="none" width="100%" height="100%" overflow="visible" style="display: block;" viewBox="0 0 431 256.607" fill="none" xmlns="http://www.w3.org/2000/svg">
<g id="Vinyl Player">
<path id="Vector" d="M287.484 0.0344543C294.3 -0.295946 294.764 1.70945 296.709 7.80512C299.506 7.86577 302.647 7.38606 305.314 8.3622C307.915 9.312 315.158 27.9072 316.915 31.5705L386.13 31.532C387.485 33.2819 388.806 35.24 389.89 37.1681C397.024 49.8354 404.538 62.2325 411.91 74.7688L424.426 95.9362C428.696 103.178 430.929 104.096 430.996 112.772C431.075 123.311 430.13 123.078 419.985 122.767C420.429 129.646 420.094 141.43 420.115 148.585L420.153 200.955L420.127 235.856C420.123 240.987 420.403 250.187 419.826 254.865C417.865 257.209 404.802 256.893 402.221 255.641C401.314 254.579 401.281 254.414 401.247 252.74C401.163 248.378 401.214 243.941 401.193 239.577L401.205 205.335L401.184 155.598C401.172 145.006 400.896 133.314 401.276 122.805C396.911 123.108 391.236 122.894 386.762 122.841C386.866 129.334 387.757 181.017 386.055 184.425C383.847 186.854 374.814 186.689 372.326 184.575C370.85 181.258 371.055 129.953 371.62 123.136C363.114 122.718 353.266 122.932 344.677 122.923L297.934 122.857L151.399 122.932C130.57 122.543 109.4 123.084 88.5346 122.902C79.3257 122.822 69.0859 123.277 59.9673 122.802C60.6175 129.803 60.8103 179.176 59.5031 184.2C57.5946 186.86 46.9266 186.458 44.7187 184.912C43.2818 182.098 43.894 129.64 43.9212 122.825C39.2482 122.99 34.5713 123.008 29.8974 122.88L29.7833 215.849L29.851 239.36C29.8665 243.606 30.1124 250.566 29.44 254.492C27.2604 257.321 23.6081 256.39 20.3552 256.419C18.1815 256.437 14.1529 256.797 12.3129 255.737C11.0492 252.587 11.559 135.524 11.748 122.842C8.06138 122.967 1.1741 124.119 0.515898 119.287C-0.971118 108.373 0.733757 106.451 5.92577 97.4602C10.3479 89.8029 14.906 82.4504 19.375 74.9006L33.7981 50.5208C37.7879 43.6502 40.1485 38.3813 45.151 31.6654C51.7519 31.2163 62.3136 31.5354 69.2005 31.535L114.069 31.5918C117.532 24.7195 120.244 17.5352 123.421 10.5504C125.241 6.54918 134.491 7.68509 138.616 7.68718L159.705 7.74448L234.97 7.71353L256.957 7.77919C259.077 7.79341 268.787 7.96906 270.452 7.64744C276.511 6.47682 280.45 2.10426 287.484 0.0344543ZM301.681 93.6071C288.023 93.8175 133.721 92.6347 130.367 94.0667C128.835 96.0353 130.923 100.233 126.087 100.511C121.032 100.801 106.286 101.23 102.098 99.8977C100.15 97.881 101.507 96.0094 100.625 94.3323C98.9826 92.8974 96.1533 93.9563 95.5402 91.0191C94.7064 87.0208 95.0995 82.6307 95.2609 78.4723C95.6314 68.9204 102.147 59.9473 105.728 51.292C108.008 45.7806 110.265 40.3194 112.685 34.964L68.3901 34.8933C64.1791 34.8933 51.1472 35.2011 47.4117 34.813C41.4243 43.1236 38.5368 49.3059 33.4431 57.7687L4.27358 106.929C30.2583 106.562 56.8034 106.891 82.8391 106.847L285.088 106.834L381.873 106.875L411.86 106.857C415.469 106.855 423.724 106.644 427.023 107.008C420.22 96.4841 413.78 84.2518 407.336 73.4C405.441 70.2106 403.058 66.9689 401.393 63.7694C397.764 57.9632 394.531 52.2105 391.211 46.2307C389.17 42.559 386.172 38.5549 384.32 34.8594L341.57 34.8946C334.733 34.9017 325.173 35.1857 318.55 34.8034C321.28 41.5574 324.216 48.2268 327.352 54.8026C329.899 60.0171 333.758 67.2311 335.594 72.4364C336.92 76.19 337.259 88.884 335.745 92.5485C333.487 94.3607 331.375 92.5694 331.024 94.9789C330.752 96.8166 331.191 97.9039 330.145 99.479C327.774 101.202 316.668 100.844 313.138 100.765C304.85 100.577 302.826 102.172 301.681 93.6071ZM260.871 29.9231C271.765 40.5637 264.948 50.8366 254.168 57.5374C235.844 68.9241 215.935 69.7794 194.898 70.1922C171.877 70.1265 145.104 69.0797 127.187 52.878C120.308 46.6305 120.784 34.987 127.66 28.9286C139.173 18.7844 156.461 14.0304 171.392 12.3943C174.1 12.4905 178.508 12.2024 181.315 12.092C182.755 12.3692 188.188 12.2317 189.68 11.8239C188.411 10.7026 176.979 11.23 174.371 11.2635C171.321 11.0849 166.828 11.2597 163.673 11.2957C153.725 11.0088 136.151 10.7883 126.432 11.2977C124.216 16.1308 122.812 20.3875 120.759 25.1202C113.721 41.7523 106.298 58.2183 98.4942 74.5054L259.985 74.4272L306.841 74.4451C314.301 74.4489 325.847 74.7864 332.91 74.1411C324.839 60.1668 319.227 42.6657 311.579 28.2109C308.865 23.0855 307.071 16.6628 304.411 11.248C300.217 11.1246 289.487 10.4496 287.806 15.4457C288.767 16.7908 302.383 19.393 293.317 25.8826C287.153 30.2957 272.706 30.2334 266.408 26.1925L260.871 29.9231ZM382.96 122.874C380.865 122.899 377.75 123.037 375.73 122.925C375.279 129.744 375.521 138.792 375.525 145.765L375.596 182.791C377.131 182.754 382.078 182.943 382.873 182.136L382.91 181.871C383.128 162.334 382.868 142.462 382.96 122.874ZM47.6994 122.881C47.811 136.818 47.819 150.755 47.7237 164.692C47.717 170.371 48.0431 177.227 47.8487 182.73C51.0531 182.522 53.2222 182.551 56.3965 182.649C56.5437 162.889 56.1327 142.465 56.5052 122.822L47.6994 122.881ZM253.787 23.656C257.877 20.8885 261.549 18.8919 265.576 15.7402C265.609 14.217 265.776 12.7657 265.927 11.2526C249.334 11.2308 232.36 11.0409 215.797 11.2568C211.749 11.1359 205.617 11.2095 201.6 11.5361L201.547 11.6704C203.579 12.4232 217.335 12.672 219.907 12.4236C231.829 14.9087 243.178 16.8317 253.787 23.656ZM233.439 56.7984C243.057 53.9913 254.59 50.8855 259.855 40.9066C261.703 37.4102 260.708 34.6144 258.939 31.3363C256.999 32.5174 253.499 34.5625 251.855 35.9732C247.193 39.9823 240.945 46.3264 234.907 48.3155C217.273 44.7004 229.592 34.6307 238.804 31.1615C243.266 29.4823 247.101 26.7048 251.985 25.4832C235.86 17.7585 223.729 14.9083 205.733 14.0137C201.115 13.7841 194.196 13.8481 190.043 13.5139C173.59 14.396 141.788 17.5653 130.159 30.4777C128.369 32.4651 127.067 34.928 127.221 37.6766C127.454 41.8317 131.022 45.7986 134.057 48.3134C149.918 61.4541 190.328 63.1329 210.03 61.1058C218.025 60.2831 225.665 58.8302 233.439 56.7984ZM282.269 17.7983C283.298 16.6682 284.561 13.8707 285.865 12.0702L285.665 11.7001C283.996 11.987 282.867 12.3492 281.278 11.8435C280.044 10.721 280.454 11.2434 279.844 9.4613C280.4 6.88962 283.13 5.39654 285.665 6.06822C287.977 6.6805 289.763 8.27856 291.565 9.75825C295.747 6.2535 293.041 2.44093 288.399 2.53796C282.88 4.26608 273.563 10.3626 266.772 13.2488C275.574 13.8728 282.332 10.9397 278.372 21.9094C279.4 20.7388 281.098 18.6757 282.269 17.7983ZM416.067 252.879C415.762 209.532 415.808 166.183 416.209 122.837C412.609 122.876 408.803 122.853 405.232 123.062C405.203 166.211 405.742 210.314 405.186 253.371C407.043 253.388 415.089 253.759 416.067 252.879ZM242.744 32.844C243.76 34.0891 244.671 35.5625 246.101 36.0359L246.913 35.8983C249.957 33.7997 253.913 31.0235 256.924 29.1373C259.713 27.3887 274.228 18.8739 275.733 16.9819C274.801 16.155 274.19 16.2918 272.756 16.3746C272.501 16.3892 272.246 16.4064 271.995 16.4256C266.207 17.2826 263.38 21.1575 258.408 23.8592C253.123 26.7308 248.012 29.9373 242.744 32.844ZM272.133 26.3025C276.712 26.31 292.523 27.4928 293.48 21.9483C292.339 19.6 289.88 19.1759 287.375 18.6606C282.9 22.2507 280.471 25.6354 275.612 20.5845C273.927 21.5761 270.301 23.4155 269.235 24.8249L269.435 25.5756C270.636 26.0842 270.845 26.1591 272.133 26.3025ZM317.839 93.4573C314.167 93.6577 309.881 93.1876 306.502 93.8773C305.862 94.9086 306.08 94.6485 306.243 96.17C308.317 99.0553 313.042 97.62 316.459 97.6932L327.335 97.7597L327.235 93.2282C324.697 93.4101 320.373 93.6727 317.839 93.4573ZM427.291 110.56C393.85 110.118 359.505 110.46 326.014 110.457L125.899 110.452L43.24 110.48L17.3368 110.488C13.6063 110.488 7.65617 110.689 4.12723 110.455L4.23721 119.149C17.3674 118.794 30.5736 119.078 43.7067 119.045L139.084 119.114L420.165 119.168L427.312 119.158L427.291 110.56ZM99.2565 77.9265C98.7907 81.2949 99.0617 86.7741 99.2795 90.2303C123.172 89.9605 147.879 90.2818 171.815 90.2872L332.847 90.1956L332.818 81.826L332.721 78.0122L168.531 77.9633L123.619 78.0565C116.474 78.0682 106.279 78.3058 99.2565 77.9265ZM233.59 39.0459C236.032 39.6415 242.543 38.5097 240.945 34.9515C238.01 33.6014 234.865 36.1622 232.482 37.7168C225.787 41.5779 230.742 46.5577 236.011 45.1688L236.521 44.5991C234.635 42.756 232.043 43.0851 230.713 41.1111L230.717 40.2479C231.871 39.36 232.151 39.3416 233.59 39.0459ZM117.618 97.7404C118.211 97.7567 129.366 99.1034 126.06 94.0684C125.519 93.2436 117.671 93.6063 115.47 93.4523C112.374 93.508 105.322 92.4498 104.823 95.95C106.722 99.0323 114.066 97.6576 117.618 97.7404ZM15.458 253.401C16.8994 253.41 24.9894 253.547 25.8219 253.301C26.6658 210.19 24.9881 165.849 25.9879 122.893C22.3921 122.995 18.7937 122.986 15.1983 122.865C15.6792 128.958 15.4392 135.583 15.4638 141.739C15.6123 178.93 15.029 216.219 15.458 253.401ZM263.359 38.6958C261.356 45.1759 256.066 50.6643 249.97 53.4806C220.401 67.137 181.12 68.1822 150.205 58.6286C141.38 55.9013 130.731 51.727 126.151 43.3896C125.521 42.2412 124.814 40.1442 123.952 39.5779C123.804 41.0697 123.824 41.265 124.215 42.7125C126.055 49.4815 129.823 52.696 135.762 56.1075C143.226 60.3007 151.295 63.3094 159.683 65.0258C181.17 69.6276 212.472 68.6719 233.782 63.539C244.529 60.9506 263.656 52.824 264.083 39.8339C263.761 39.181 263.853 39.1467 263.359 38.6958Z" fill="var(--fill-0, #79AFB6)"/>
<path id="Vector_2" d="M268.62 56.0735C276.231 55.5979 283.616 58.9764 279.112 68.2485C278.368 69.7796 275.955 69.9808 274.328 70.2865C269.256 70.371 263.481 70.297 261.821 64.2214C261.352 62.569 261.628 60.7952 262.573 59.3607C264.3 56.7016 265.726 56.6071 268.62 56.0735ZM276.741 65.0754C275.005 65.4096 273.667 65.8123 271.94 65.5221C272.639 64.0164 276.72 62.8529 277.326 60.5732C276.302 58.1316 269.18 58.4996 266.688 58.6899C261.126 63.906 268.423 72.368 276.197 67.3526C276.95 65.9813 276.82 66.5835 276.741 65.0754Z" fill="var(--fill-0, #79AFB6)"/>
<path id="Vector_3" d="M285.937 55.7044C299.276 54.9629 293.091 59.2853 296.763 68.513L296.939 68.9484C291.54 70.5138 287.693 71.3904 282.88 67.9083L282.821 66.7155C285.259 63.3496 292.577 65.6168 293.183 62.6578C291.607 61.7219 286.953 63.6704 283.979 63.071C280.032 60.1259 281.692 56.8963 285.937 55.7044Z" fill="var(--fill-0, #79AFB6)"/>
<path id="Vector_4" d="M117.045 54.413C118.83 54.2156 122.307 53.9529 123.812 54.7957C130.054 58.2904 128.662 64.1104 122.469 66.276C109.745 67.289 109.202 55.8973 117.045 54.413ZM123.166 63.2832L124.296 61.7646L124.133 60.9888C122.205 60.2531 118.265 60.9085 115.677 60.6789C115.071 61.9746 115.1 61.333 115.563 62.6659C117.654 64.4141 120.76 64.1272 123.166 63.2832ZM123.018 58.8378L124.071 58.5422C124.043 55.735 119.315 55.8454 117.373 56.0738C116.169 57.0604 115.924 56.9307 115.519 58.2582C116.969 59.4158 120.938 58.9286 123.018 58.8378Z" fill="var(--fill-0, #79AFB6)"/>
<path id="Vector_5" d="M306.87 46.0903L308.154 46.555C308.765 47.6858 310.002 52.4624 310.717 54.4018C313.41 54.444 316.384 54.1629 319.089 53.9722C317.998 56.9471 316.76 59.6329 315.464 62.517C315.756 66.4722 317.667 67.0594 316.338 70.0531C312.574 69.0527 313.783 64.0758 311.784 61.3962C310.521 59.704 306.619 57.2892 304.813 56.119C306.452 54.16 306.632 55.7325 308.171 54.1119C308.154 50.6293 305.218 49.4658 306.87 46.0903Z" fill="var(--fill-0, #79AFB6)"/>
<path id="Vector_6" d="M298.783 51.1692C299.414 51.201 300.715 51.2671 300.911 51.8823C302.145 55.7865 302.747 59.7182 304.432 63.545C305.072 65.0029 306.072 68.0552 305.595 69.4483C304.336 69.8724 304.779 69.7649 303.266 69.3011C301.936 65.9452 301.167 62.5471 299.941 59.1536C298.858 56.1403 297.901 57.7513 295.806 56.2988L296.052 55.5414C296.981 55.303 297.315 55.2248 298.218 54.8166C298.126 53.1571 298.022 52.6769 298.783 51.1692Z" fill="var(--fill-0, #79AFB6)"/>
<path id="Vector_7" d="M195.955 25.2592C201.247 24.9209 221.547 26.552 220.861 34.6844C220.003 44.7871 199.987 45.5592 192.164 45.6403C187.185 45.5408 166.508 43.6763 166.445 36.2921C166.353 25.5524 188.122 25.4353 195.955 25.2592ZM195.814 42.9244C231.846 40.4556 218.766 25.7021 192.112 27.3307C188.174 27.5327 162.063 29.5423 171.754 38.8341C174.889 41.8395 191.003 43.5354 195.814 42.9244Z" fill="var(--fill-0, #79AFB6)"/>
<path id="Vector_8" d="M194.334 30.1857C195.646 30.0957 196.903 30.7231 197.621 31.8247C198.338 32.9267 198.404 34.3307 197.792 35.4942C197.179 36.6577 195.985 37.3993 194.671 37.4315C192.699 37.48 191.05 35.9442 190.958 33.9736C190.866 32.0029 192.366 30.3203 194.334 30.1857Z" fill="var(--fill-0, #79AFB6)"/>
<path id="Vector_9" d="M185.375 15.1585C193.138 14.9791 206.078 14.7599 213.547 17.025L213.894 17.8698C211.766 19.0681 206.944 17.5403 204.338 17.4382C185.865 16.7155 168.162 17.498 151.331 25.9132C147.169 27.2862 142.24 31.0654 141.845 35.9022C141.685 37.8666 143.932 39.9389 145.271 41.3161C144.345 41.3717 142.961 40.5424 142.16 40.0418C136.924 36.7691 141.21 29.3184 144.941 26.9207C153.129 21.6586 162.296 18.7971 171.763 16.9619C176.255 16.0911 180.82 16.0455 185.375 15.1585Z" fill="var(--fill-0, #79AFB6)"/>
<path id="Vector_10" d="M188.045 19.3606C192.476 19.1904 211.694 19.2653 214.475 22.2059L214.191 21.7638L214.647 22.0666C212.171 22.6446 202.7 21.1298 199.686 21.0566C189.326 20.8044 174.997 22.3267 165.273 25.6566C164.963 25.8085 162.356 26.4116 161.751 26.6328C156.544 28.5349 154.471 29.6804 151.186 34.0007C151.328 35.6343 151.54 36.5498 151.04 38.1144L150.507 38.3202C148.828 36.6326 149.391 32.0246 150.996 30.5491C159.291 22.9223 177.603 20.369 188.045 19.3606Z" fill="var(--fill-0, #79AFB6)"/>
<path id="Vector_11" d="M232.482 37.7165L233.59 39.0456C232.151 39.3413 231.871 39.3597 230.717 40.2476L230.713 41.1108C232.043 43.0849 234.635 42.7557 236.521 44.5989L236.011 45.1685C230.742 46.5574 225.787 41.5776 232.482 37.7165Z" fill="var(--fill-0, #79AFB6)"/>
<path id="Vector_12" d="M219.907 12.4236C217.336 12.6721 203.579 12.4232 201.547 11.6704L201.6 11.5361C205.617 11.2095 211.749 11.1359 215.797 11.2568C215.006 11.3534 211.941 11.6169 211.481 11.9489C213.635 12.0033 217.975 11.9832 219.907 12.4236Z" fill="var(--fill-0, #79AFB6)"/>
<path id="Vector_13" d="M163.673 11.2956C166.828 11.2596 171.321 11.0848 174.371 11.2634C175.898 11.4085 179.963 11.7305 181.315 12.0919C178.508 12.2023 174.1 12.4904 171.392 12.3942C169.276 11.122 166.811 12.3591 163.673 11.2956Z" fill="var(--fill-0, #79AFB6)"/>
<path id="Vector_14" d="M174.371 11.2632C176.979 11.2297 188.411 10.7023 189.68 11.8236C188.188 12.2314 182.755 12.369 181.315 12.0917C179.963 11.7303 175.898 11.4083 174.371 11.2632Z" fill="var(--fill-0, #79AFB6)"/>
<rect id="white part l" x="15.47" y="163.5" width="10.22" height="4" fill="var(--fill-0, white)"/>
<rect id="white part l_2" x="47.75" y="163" width="8.65" height="5" fill="var(--fill-0, white)"/>
<path id="shadow" d="M47 136V122H57V136H47Z" fill="var(--fill-0, #79AFB6)"/>
<path id="shadow_2" d="M375 136V122H385V136H375Z" fill="var(--fill-0, #79AFB6)"/>
<rect id="player shadow" x="98" y="78.0002" width="236" height="13" fill="var(--fill-0, #79AFB6)"/>
<rect id="white part r" x="405.3" y="163.5" width="10.6" height="4" fill="var(--fill-0, white)"/>
<rect id="white part r_2" x="375.5" y="163" width="7.5" height="5" fill="var(--fill-0, white)"/>
</g>
</svg>
